<?xml version="1.0" encoding="UTF-8"?>
<svg version="1.1" xmlns="http://www.w3.org/2000/svg" width="128" height="128">
<path d="M0 0 C42.24 0 84.48 0 128 0 C128 42.24 128 84.48 128 128 C85.76 128 43.52 128 0 128 C0 85.76 0 43.52 0 0 Z " fill="#DFEEE4" transform="translate(0,0)"/>
<path d="M0 0 C0.495 0.495 0.495 0.495 1 1 C2.52139244 0.99406865 4.04268928 0.94460965 5.5625 0.875 C10.73022179 0.80064429 14.30243172 1.91219188 19 4 C19 4.99 19 5.98 19 7 C18.21625 7.28875 17.4325 7.5775 16.625 7.875 C13.90328368 8.84912254 13.90328368 8.84912254 12 11 C11.72234584 13.32817205 11.72234584 13.32817205 11.8046875 16.0078125 C11.81435547 17.48701172 11.81435547 17.48701172 11.82421875 18.99609375 C11.84097656 20.02863281 11.85773438 21.06117187 11.875 22.125 C11.88402344 23.16527344 11.89304688 24.20554687 11.90234375 25.27734375 C11.92596133 27.85165997 11.96183316 30.42585838 12 33 C12.33 28.38 12.66 23.76 13 19 C13.66 19 14.32 19 15 19 C15.80652508 21.88167681 16.17515006 24.56031547 16.31640625 27.546875 C16.37356812 28.68914551 16.37356812 28.68914551 16.43188477 29.85449219 C16.47498779 30.81000977 16.51809082 31.76552734 16.5625 32.75 C16.706875 35.8025 16.85125 38.855 17 42 C28.55 42 40.1 42 52 42 C52.33 32.1 52.66 22.2 53 12 C50.36 12 47.72 12 45 12 C45 12.66 45 13.32 45 14 C40.05 14 35.1 14 30 14 C30 12.68 30 11.36 30 10 C30.99 10 31.98 10 33 10 C33.33 9.34 33.66 8.68 34 8 C34.495 9.485 34.495 9.485 35 11 C35.66 6.38 36.32 1.76 37 -3 C37.33 -3 37.66 -3 38 -3 C38.495 1.95 38.495 1.95 39 7 C43.21899889 7.98443307 47.3825729 8.27437351 51.6953125 8.5234375 C54.52412022 9.1083774 55.27108893 9.70299642 57 12 C57.43237305 14.72729492 57.43237305 14.72729492 57.51171875 17.98046875 C57.54716797 19.14384766 57.58261719 20.30722656 57.61914062 21.50585938 C57.64169922 22.72080078 57.66425781 23.93574219 57.6875 25.1875 C57.72166016 26.41404297 57.75582031 27.64058594 57.79101562 28.90429688 C57.8735941 31.93610678 57.94271369 34.96762379 58 38 C58.94875 37.95875 59.8975 37.9175 60.875 37.875 C64 38 64 38 66 40 C65.01 40.66 64.02 41.32 63 42 C64.485 42.99 64.485 42.99 66 44 C62.9498772 46.58253322 60.36965291 47.63229497 56.5 48.5625 C52.62979018 49.4860022 52.62979018 49.4860022 49.015625 51.08203125 C46.33743989 52.30174734 44.17663939 52.19468189 41.25 52.125 C39.77273437 52.09792969 39.77273437 52.09792969 38.265625 52.0703125 C37.51796875 52.04710937 36.7703125 52.02390625 36 52 C36 51.34 36 50.68 36 50 C35.34 50.350625 34.68 50.70125 34 51.0625 C30.79327753 52.06460077 28.65450911 51.81667316 25.37890625 51.30078125 C18.30725416 50.40666432 11.69106615 50.45102242 5 53 C-0.37931034 53.31034483 -0.37931034 53.31034483 -3 52 C-9.7343041 51.64774409 -16.342642 51.97579108 -23 53 C-19.23386225 49.23386225 -14.91150675 47.80557454 -9.6875 47.75 C-4.77239608 47.91948634 0.1170568 48.42913399 5 49 C-1.92948528 46.36019608 -11.22572668 45.07353883 -18.2265625 47.8984375 C-19.43925964 48.62605579 -20.64647105 49.36290542 -21.84765625 50.109375 C-26.54676405 52.0538334 -32.00826207 51.27393684 -37 51 C-37 50.67 -37 50.34 -37 50 C-36.32195313 49.91363281 -35.64390625 49.82726562 -34.9453125 49.73828125 C-28.71484245 48.79767012 -23.83552755 47.17091668 -18.3046875 44.17578125 C-15.26160691 42.62329437 -12.31363607 41.79239123 -9 41 C-13.38677849 40.4227923 -15.7599107 41.32046043 -19.4375 43.5 C-26.03274445 47.0854698 -32.71745153 46.43695291 -40 46 C-38 44 -38 44 -34.875 43.875 C-33.92625 43.91625 -32.9775 43.9575 -32 44 C-32 43.34 -32 42.68 -32 42 C-33.7015625 41.814375 -33.7015625 41.814375 -35.4375 41.625 C-36.613125 41.41875 -37.78875 41.2125 -39 41 C-39.33 40.34 -39.66 39.68 -40 39 C-37.69 39 -35.38 39 -33 39 C-33.66 38.01 -34.32 37.02 -35 36 C-33.35 36.66 -31.7 37.32 -30 38 C-31.65 36.02 -33.3 34.04 -35 32 C-33.68 32.33 -32.36 32.66 -31 33 C-31.185625 32.38125 -31.37125 31.7625 -31.5625 31.125 C-32 29 -32 29 -31 27 C-30.01 28.32 -29.02 29.64 -28 31 C-28.28232721 28.89455987 -28.5761898 26.79066411 -28.875 24.6875 C-29.03742187 23.51574219 -29.19984375 22.34398437 -29.3671875 21.13671875 C-29.82300621 17.85469105 -29.82300621 17.85469105 -32 15 C-30.02 14.67 -28.04 14.34 -26 14 C-26.43945312 16.83203125 -26.43945312 16.83203125 -26.87890625 19.6640625 C-27.11657429 22.62789288 -27.11657429 22.62789288 -26 28 C-25.67 18.43 -25.34 8.86 -25 -1 C-15.59292914 -3.68773453 -9.03608667 -3.89277841 0 0 Z " fill="#C1D4C3" transform="translate(57,41)"/>
<path d="M0 0 C1.32 0 2.64 0 4 0 C3.67 1.32 3.34 2.64 3 4 C1.68 3.67 0.36 3.34 -1 3 C-1 4.32 -1 5.64 -1 7 C3.95 7 8.9 7 14 7 C14 6.34 14 5.68 14 5 C16.64 5 19.28 5 22 5 C22.02465622 9.25414623 22.04283899 13.50825498 22.05493164 17.76245117 C22.05997101 19.21070073 22.06680253 20.65894517 22.07543945 22.10717773 C22.08752247 24.18474588 22.09323211 26.26224697 22.09765625 28.33984375 C22.10289307 29.59144287 22.10812988 30.84304199 22.11352539 32.13256836 C22 35 22 35 21 36 C18.41810554 36.10091475 15.863535 36.13971499 13.28125 36.1328125 C12.12163757 36.13424759 12.12163757 36.13424759 10.93859863 36.13571167 C9.30102456 36.13639341 7.66344781 36.13453957 6.02587891 36.13037109 C3.51068079 36.12502271 0.99566127 36.13031626 -1.51953125 36.13671875 C-3.10677123 36.13605797 -4.6940111 36.1347768 -6.28125 36.1328125 C-7.03853394 36.13483673 -7.79581787 36.13686096 -8.5760498 36.13894653 C-13.88504868 36.11495132 -13.88504868 36.11495132 -15 35 C-15.15740605 33.29436222 -15.25093392 31.58272756 -15.31640625 29.87109375 C-15.35830078 28.83662109 -15.40019531 27.80214844 -15.44335938 26.73632812 C-15.48267578 25.64771484 -15.52199219 24.55910156 -15.5625 23.4375 C-15.60568359 22.34501953 -15.64886719 21.25253906 -15.69335938 20.12695312 C-15.79982068 17.41810436 -15.90183516 14.70916008 -16 12 C-16.66 12 -17.32 12 -18 12 C-18.1953125 5.9453125 -18.1953125 5.9453125 -18 4 C-15.16217343 1.16217343 -12.24587598 1.58247996 -8.4375 1.4375 C-3.84900773 1.64289991 -3.84900773 1.64289991 0 0 Z " fill="#DDDCBB" transform="translate(88,48)"/>
<path d="M0 0 C8.26434783 -0.37565217 8.26434783 -0.37565217 11.9375 1.5 C15.14193133 3.06951739 16.41479406 3.12640022 19.875 3 C24.95426504 2.81529945 28.37764625 3.94562056 33 6 C33 6.99 33 7.98 33 9 C32.21625 9.28875 31.4325 9.5775 30.625 9.875 C27.90328368 10.84912254 27.90328368 10.84912254 26 13 C25.62904292 15.42246595 25.62904292 15.42246595 25.5859375 18.2265625 C25.54726562 19.2578125 25.50859375 20.2890625 25.46875 21.3515625 C25.4378125 22.43179688 25.406875 23.51203125 25.375 24.625 C25.33632812 25.71296875 25.29765625 26.8009375 25.2578125 27.921875 C25.16333753 30.61441165 25.07777569 33.30693757 25 36 C23.74195263 36.67985769 22.47769864 37.34823863 21.2109375 38.01171875 C20.50759277 38.38514404 19.80424805 38.75856934 19.07958984 39.14331055 C16.10467668 40.36882948 14.01915679 39.93450091 11 39 C10.34 38.67 9.68 38.34 9 38 C3.03467051 37.58086737 -2.43156539 37.59202828 -8 40 C-8.30497051 31.00336984 -8.30497051 31.00336984 -6 27 C-5.01 26.67 -4.02 26.34 -3 26 C-3 23.03 -3 20.06 -3 17 C-3.66 17 -4.32 17 -5 17 C-5 17.99 -5 18.98 -5 20 C-5.66 20 -6.32 20 -7 20 C-6.45912682 16.21388773 -4.88277668 14.44599233 -2 12 C-1.34 12 -0.68 12 0 12 C0 8.04 0 4.08 0 0 Z " fill="#12592E" transform="translate(43,39)"/>
<path d="M0 0 C0.33 0 0.66 0 1 0 C1.33 3.3 1.66 6.6 2 10 C6.21899889 10.98443307 10.3825729 11.27437351 14.6953125 11.5234375 C17.54708075 12.11312517 18.28410268 12.65529371 20 15 C20.40405273 18.03100586 20.40405273 18.03100586 20.43359375 21.71484375 C20.4388356 22.36699356 20.44407745 23.01914337 20.44947815 23.6910553 C20.45589347 25.06868061 20.45456757 26.44636073 20.44604492 27.82397461 C20.43754137 29.92726701 20.46628361 32.02783583 20.49804688 34.13085938 C20.49965929 35.47135336 20.49908059 36.81185213 20.49609375 38.15234375 C20.49887329 39.9775354 20.49887329 39.9775354 20.50170898 41.83959961 C20 45 20 45 18.49267578 47.39697266 C14.96220724 49.66739934 11.68453586 49.55467218 7.62109375 49.49609375 C6.8126149 49.49754898 6.00413605 49.49900421 5.17115784 49.50050354 C3.46571236 49.4988466 1.76025162 49.48730811 0.05493164 49.46655273 C-2.55712227 49.43755969 -5.16715077 49.44595438 -7.77929688 49.45898438 C-9.43750987 49.45274782 -11.09571646 49.44435752 -12.75390625 49.43359375 C-13.92585289 49.43799721 -13.92585289 49.43799721 -15.12147522 49.44248962 C-18.08044737 49.39090834 -20.4124521 49.34735717 -22.99707031 47.81933594 C-24.39998134 45.27442528 -24.33897268 43.3552787 -24.29296875 40.45703125 C-24.28330078 39.38388672 -24.27363281 38.31074219 -24.26367188 37.20507812 C-24.23853516 36.08552734 -24.21339844 34.96597656 -24.1875 33.8125 C-24.16719727 32.11577148 -24.16719727 32.11577148 -24.14648438 30.38476562 C-24.11109958 27.58936683 -24.06172948 24.79492108 -24 22 C-23.34 22 -22.68 22 -22 22 C-21.19347492 24.88167681 -20.82484994 27.56031547 -20.68359375 30.546875 C-20.64548584 31.30838867 -20.60737793 32.06990234 -20.56811523 32.85449219 C-20.50346069 34.28776855 -20.50346069 34.28776855 -20.4375 35.75 C-20.293125 38.8025 -20.14875 41.855 -20 45 C-8.45 45 3.1 45 15 45 C15.33 35.1 15.66 25.2 16 15 C13.36 15 10.72 15 8 15 C8 15.66 8 16.32 8 17 C3.05 17 -1.9 17 -7 17 C-7 15.68 -7 14.36 -7 13 C-6.01 13 -5.02 13 -4 13 C-3.67 12.34 -3.34 11.68 -3 11 C-2.67 11.99 -2.34 12.98 -2 14 C-1.34 9.38 -0.68 4.76 0 0 Z " fill="#325958" transform="translate(94,38)"/>
<path d="M0 0 C1.15822266 0.02707031 1.15822266 0.02707031 2.33984375 0.0546875 C3.19255859 0.08949219 3.19255859 0.08949219 4.0625 0.125 C4.0625 0.455 4.0625 0.785 4.0625 1.125 C2.4125 1.125 0.7625 1.125 -0.9375 1.125 C-0.9375 5.085 -0.9375 9.045 -0.9375 13.125 C-1.5975 13.125 -2.2575 13.125 -2.9375 13.125 C-3.5975 14.445 -4.2575 15.765 -4.9375 17.125 C-5.5975 17.125 -6.2575 17.125 -6.9375 17.125 C-7.2675 18.445 -7.5975 19.765 -7.9375 21.125 C-7.2775 21.125 -6.6175 21.125 -5.9375 21.125 C-5.9375 20.135 -5.9375 19.145 -5.9375 18.125 C-4.9475 17.795 -3.9575 17.465 -2.9375 17.125 C-2.91061849 18.77074566 -2.89115877 20.41661413 -2.875 22.0625 C-2.86339844 22.97902344 -2.85179688 23.89554688 -2.83984375 24.83984375 C-2.9375 27.125 -2.9375 27.125 -3.9375 28.125 C-5.60367115 28.16563832 -7.27138095 28.167721 -8.9375 28.125 C-8.96328125 29.18460938 -8.9890625 30.24421875 -9.015625 31.3359375 C-9.0718978 32.72400001 -9.12924533 34.11201925 -9.1875 35.5 C-9.20876953 36.54800781 -9.20876953 36.54800781 -9.23046875 37.6171875 C-9.328125 39.6484375 -9.328125 39.6484375 -9.9375 43.125 C-12.72455093 45.41522881 -14.22205638 45.125 -17.9375 45.125 C-20.1875 42.125 -20.1875 42.125 -21.9375 39.125 C-20.2875 39.785 -18.6375 40.445 -16.9375 41.125 C-18.5875 39.145 -20.2375 37.165 -21.9375 35.125 C-20.6175 35.455 -19.2975 35.785 -17.9375 36.125 C-18.123125 35.50625 -18.30875 34.8875 -18.5 34.25 C-18.9375 32.125 -18.9375 32.125 -17.9375 30.125 C-16.9475 31.445 -15.9575 32.765 -14.9375 34.125 C-15.21982721 32.01955987 -15.5136898 29.91566411 -15.8125 27.8125 C-15.97492187 26.64074219 -16.13734375 25.46898437 -16.3046875 24.26171875 C-16.76050621 20.97969105 -16.76050621 20.97969105 -18.9375 18.125 C-16.9575 17.795 -14.9775 17.465 -12.9375 17.125 C-13.37695312 19.95703125 -13.37695312 19.95703125 -13.81640625 22.7890625 C-14.05407429 25.75289288 -14.05407429 25.75289288 -12.9375 31.125 C-12.6075 21.555 -12.2775 11.985 -11.9375 2.125 C-4.0625 -0.125 -4.0625 -0.125 0 0 Z " fill="#A7C95B" transform="translate(43.9375,37.875)"/>
<path d="M0 0 C1.65322266 0.01740234 1.65322266 0.01740234 3.33984375 0.03515625 C4.99693359 0.04869141 4.99693359 0.04869141 6.6875 0.0625 C7.54214844 0.07410156 8.39679688 0.08570313 9.27734375 0.09765625 C9.27734375 1.08765625 9.27734375 2.07765625 9.27734375 3.09765625 C14.55734375 3.09765625 19.83734375 3.09765625 25.27734375 3.09765625 C23.95734375 3.42765625 22.63734375 3.75765625 21.27734375 4.09765625 C21.27734375 4.75765625 21.27734375 5.41765625 21.27734375 6.09765625 C23.58734375 6.09765625 25.89734375 6.09765625 28.27734375 6.09765625 C28.27734375 6.42765625 28.27734375 6.75765625 28.27734375 7.09765625 C27.42970459 7.12738525 27.42970459 7.12738525 26.56494141 7.15771484 C24.01026378 7.25283861 21.45641834 7.36256683 18.90234375 7.47265625 C18.01289062 7.50359375 17.1234375 7.53453125 16.20703125 7.56640625 C15.35625 7.60507812 14.50546875 7.64375 13.62890625 7.68359375 C12.45062256 7.7307251 12.45062256 7.7307251 11.24853516 7.77880859 C9.04731436 7.93760275 9.04731436 7.93760275 7.27734375 10.09765625 C7.27734375 8.77765625 7.27734375 7.45765625 7.27734375 6.09765625 C6.69984375 6.61328125 6.12234375 7.12890625 5.52734375 7.66015625 C3.27734375 9.09765625 3.27734375 9.09765625 1.02734375 8.78515625 C0.44984375 8.55828125 -0.12765625 8.33140625 -0.72265625 8.09765625 C0.92734375 9.74765625 2.57734375 11.39765625 4.27734375 13.09765625 C3.94734375 14.08765625 3.61734375 15.07765625 3.27734375 16.09765625 C1.95734375 15.76765625 0.63734375 15.43765625 -0.72265625 15.09765625 C0.26734375 17.07765625 1.25734375 19.05765625 2.27734375 21.09765625 C1.28734375 21.09765625 0.29734375 21.09765625 -0.72265625 21.09765625 C-0.12081876 23.11811067 0.55040471 25.11876664 1.27734375 27.09765625 C1.93734375 27.42765625 2.59734375 27.75765625 3.27734375 28.09765625 C2.94734375 28.75765625 2.61734375 29.41765625 2.27734375 30.09765625 C0.29734375 30.09765625 -1.68265625 30.09765625 -3.72265625 30.09765625 C-3.74731371 25.98593065 -3.76549584 21.87423347 -3.77758789 17.76245117 C-3.78262705 16.36270397 -3.78945841 14.96296205 -3.7980957 13.56323242 C-3.81017945 11.55519848 -3.81535432 9.54712668 -3.8203125 7.5390625 C-3.82554932 6.32935791 -3.83078613 5.11965332 -3.83618164 3.87329102 C-3.68316465 0.13210777 -3.68316465 0.13210777 0 0 Z " fill="#F5F8F2" transform="translate(76.72265625,52.90234375)"/>
<path d="M0 0 C0.598125 0.20625 1.19625 0.4125 1.8125 0.625 C0.34955616 3.55088768 -1.58268159 3.64701919 -4.625 4.6875 C-8.4759726 5.99087668 -8.4759726 5.99087668 -12.1875 7.625 C-14.06129605 7.69533769 -15.93751102 7.7093022 -17.8125 7.6875 C-18.81539062 7.67847656 -19.81828125 7.66945313 -20.8515625 7.66015625 C-21.62242188 7.64855469 -22.39328125 7.63695313 -23.1875 7.625 C-23.1875 6.965 -23.1875 6.305 -23.1875 5.625 C-23.8475 5.975625 -24.5075 6.32625 -25.1875 6.6875 C-28.39422247 7.68960077 -30.53299089 7.44167316 -33.80859375 6.92578125 C-40.88024584 6.03166432 -47.49643385 6.07602242 -54.1875 8.625 C-59.56681034 8.93534483 -59.56681034 8.93534483 -62.1875 7.625 C-68.9218041 7.27274409 -75.530142 7.60079108 -82.1875 8.625 C-78.42136225 4.85886225 -74.09900675 3.43057454 -68.875 3.375 C-64.79398395 3.50014189 -60.77715446 3.99020387 -56.7421875 4.6015625 C-54.05934414 4.75982224 -54.05934414 4.75982224 -51.13818359 3.64794922 C-46.58302516 2.30294631 -42.14261257 2.30978067 -37.421875 2.28125 C-36.50666077 2.2666272 -35.59144653 2.25200439 -34.64849854 2.23693848 C-30.75701376 2.17497242 -26.8653795 2.13493611 -22.97363281 2.09326172 C-20.12287654 2.0595839 -17.27245912 2.01448635 -14.421875 1.96875 C-13.54061951 1.9634729 -12.65936401 1.9581958 -11.75140381 1.95275879 C-10.93335266 1.93934448 -10.11530151 1.92593018 -9.27246094 1.91210938 C-8.19493561 1.90117249 -8.19493561 1.90117249 -7.09564209 1.89001465 C-4.10124762 1.47413451 -3.12387284 -0.53552106 0 0 Z " fill="#679D84" transform="translate(116.1875,85.375)"/>
<path d="M0 0 C2.5 1.25 2.5 1.25 5 3 C5 4.32 5 5.64 5 7 C5.66 7 6.32 7 7 7 C6.875 8.875 6.875 8.875 6 11 C4.01751285 11.71706982 2.01584651 12.38290413 0 13 C-0.99 14.485 -0.99 14.485 -2 16 C-0.68 15.34 0.64 14.68 2 14 C4.90527612 16.90527612 4.71264319 20.21099025 5.125 24.125 C5.21136719 24.87910156 5.29773437 25.63320312 5.38671875 26.41015625 C5.59889261 28.27257127 5.80045763 30.13618931 6 32 C4.49440461 30.03617993 3.10868317 28.21736634 2 26 C0.02111039 25.27306096 -1.97954558 24.60183749 -4 24 C-4 23.01 -4 22.02 -4 21 C-4.66 21 -5.32 21 -6 21 C-6.33 17.7 -6.66 14.4 -7 11 C-6.34 11 -5.68 11 -5 11 C-4.67 9.68 -4.34 8.36 -4 7 C-3.01 8.485 -3.01 8.485 -2 10 C-2 9.01 -2 8.02 -2 7 C-2 6.34 -2 5.68 -2 5 C-1.34 5 -0.68 5 0 5 C0 3.35 0 1.7 0 0 Z " fill="#E8B45E" transform="translate(24,43)"/>
<path d="M0 0 C0.66 0 1.32 0 2 0 C2.80652508 2.88167681 3.17515006 5.56031547 3.31640625 8.546875 C3.35830078 9.39121094 3.40019531 10.23554687 3.44335938 11.10546875 C3.48267578 11.97816406 3.52199219 12.85085937 3.5625 13.75 C3.62727539 15.08224609 3.62727539 15.08224609 3.69335938 16.44140625 C3.79913615 18.62745963 3.90122546 20.81362089 4 23 C8.9296024 23.02471455 13.85916874 23.04286691 18.78881836 23.05493164 C20.46590808 23.05996113 22.14299342 23.06678548 23.82006836 23.07543945 C26.230317 23.08756559 28.64050768 23.09324215 31.05078125 23.09765625 C31.80087967 23.10281754 32.55097809 23.10797882 33.32380676 23.11329651 C36.48951232 23.11363785 38.97337972 23.00887343 42 22 C42 23.32 42 24.64 42 26 C38.80256861 27.59871569 35.32940884 27.18421681 31.81640625 27.203125 C30.59944313 27.21167511 30.59944313 27.21167511 29.3578949 27.22039795 C27.64054673 27.22984986 25.92318041 27.23638269 24.20581055 27.24023438 C21.57633951 27.24994887 18.94764717 27.28097318 16.31835938 27.3125 C14.65104632 27.31902918 12.98372766 27.32427998 11.31640625 27.328125 C10.13504845 27.3466452 10.13504845 27.3466452 8.92982483 27.36553955 C3.5858995 27.34369245 3.5858995 27.34369245 0.99853516 25.82592773 C-0.39552476 23.27674091 -0.33897268 21.35527891 -0.29296875 18.45703125 C-0.28330078 17.38388672 -0.27363281 16.31074219 -0.26367188 15.20507812 C-0.23853516 14.08552734 -0.21339844 12.96597656 -0.1875 11.8125 C-0.16719727 10.11577148 -0.16719727 10.11577148 -0.14648438 8.38476562 C-0.11109958 5.58936683 -0.06172948 2.79492108 0 0 Z " fill="#365D56" transform="translate(70,60)"/>
<path d="M0 0 C2.4294516 3.6441774 2.16179575 5.71241272 2 10 C2.99 10.33 3.98 10.66 5 11 C5 11.66 5 12.32 5 13 C4.34 13 3.68 13 3 13 C2.97421875 14.05960938 2.9484375 15.11921875 2.921875 16.2109375 C2.8656022 17.59900001 2.80825467 18.98701925 2.75 20.375 C2.72873047 21.42300781 2.72873047 21.42300781 2.70703125 22.4921875 C2.609375 24.5234375 2.609375 24.5234375 2 28 C-0.78705093 30.29022881 -2.28455638 30 -6 30 C-8.25 27 -8.25 27 -10 24 C-7.525 24.99 -7.525 24.99 -5 26 C-6.65 24.02 -8.3 22.04 -10 20 C-8.68 20.33 -7.36 20.66 -6 21 C-6.185625 20.38125 -6.37125 19.7625 -6.5625 19.125 C-7 17 -7 17 -6 15 C-5.01 16.32 -4.02 17.64 -3 19 C-3.28232721 16.89455987 -3.5761898 14.79066411 -3.875 12.6875 C-4.03742187 11.51574219 -4.19984375 10.34398437 -4.3671875 9.13671875 C-4.82300621 5.85469105 -4.82300621 5.85469105 -7 3 C-5.02 2.67 -3.04 2.34 -1 2 C-1.29296875 3.88802083 -1.5859375 5.77604167 -1.87890625 7.6640625 C-2.11657429 10.62789288 -2.11657429 10.62789288 -1 16 C-0.67 10.72 -0.34 5.44 0 0 Z " fill="#6F9658" transform="translate(32,53)"/>
<path d="M0 0 C1.63001953 0.01353516 1.63001953 0.01353516 3.29296875 0.02734375 C4.12441406 0.03894531 4.95585938 0.05054687 5.8125 0.0625 C6.3075 1.5475 6.3075 1.5475 6.8125 3.0625 C4.48086622 3.73508667 2.1472961 4.40097444 -0.1875 5.0625 C-0.79980469 5.24683594 -1.41210938 5.43117188 -2.04296875 5.62109375 C-4.80910297 6.19044378 -7.42748876 6.19449507 -10.25 6.1875 C-11.29285156 6.19007812 -12.33570313 6.19265625 -13.41015625 6.1953125 C-16.1875 6.0625 -16.1875 6.0625 -19.1875 5.0625 C-24.03565131 4.90354422 -28.41230555 5.10746111 -33.1875 6.0625 C-33.1875 5.0725 -33.1875 4.0825 -33.1875 3.0625 C-33.8475 2.7325 -34.5075 2.4025 -35.1875 2.0625 C-31.94877868 0.98292623 -29.52721795 0.92923216 -26.125 0.9375 C-25.06152344 0.93492188 -23.99804688 0.93234375 -22.90234375 0.9296875 C-20.1875 1.0625 -20.1875 1.0625 -18.1875 2.0625 C-16.07074356 2.00132556 -16.07074356 2.00132556 -13.75 1.6875 C-12.96753906 1.59726563 -12.18507813 1.50703125 -11.37890625 1.4140625 C-2.40348925 -0.02584397 -2.40348925 -0.02584397 0 0 Z " fill="#D6E3CD" transform="translate(74.1875,90.9375)"/>
<path d="M0 0 C6.80203375 -0.37634203 11.75690073 0.22528921 18 3 C18 3.99 18 4.98 18 6 C17.2575 6.28875 16.515 6.5775 15.75 6.875 C14.8425 7.24625 13.935 7.6175 13 8 C12.2575 8.268125 11.515 8.53625 10.75 8.8125 C8.72032588 9.91657136 8.72032588 9.91657136 8.25 12.625 C8.1675 13.40875 8.085 14.1925 8 15 C7.01 15.33 6.02 15.66 5 16 C4.67 13.69 4.34 11.38 4 9 C3.34 9 2.68 9 2 9 C2 6.36 2 3.72 2 1 C1.34 0.67 0.68 0.34 0 0 Z " fill="#1A6435" transform="translate(58,42)"/>
<path d="M0 0 C-0.1875 1.875 -0.1875 1.875 -1 4 C-4.91175097 6.30102998 -8.54664559 6.24740858 -13 6 C-13.99 5.67 -14.98 5.34 -16 5 C-21.62637743 4.27734602 -25.76773504 4.58763078 -30.6875 7.5 C-37.13126038 11.1600559 -43.82459384 10.43052437 -51 10 C-48.34649628 7.34649628 -46.63562977 7.58110212 -42.9375 7.1875 C-38.42995317 6.57890696 -35.20029734 5.83957451 -31.375 3.375 C-26.44059474 0.26238815 -21.69026485 0.31911361 -16 1 C-15.34 1.33 -14.68 1.66 -14 2 C-8.70093934 2.25640616 -4.72147041 0 0 0 Z " fill="#BF854C" transform="translate(68,77)"/>
<path d="M0 0 C0 7.92 0 15.84 0 24 C1.98 24 3.96 24 6 24 C6 24.33 6 24.66 6 25 C4.98679687 25.19916016 4.98679687 25.19916016 3.953125 25.40234375 C2.61507812 25.66724609 2.61507812 25.66724609 1.25 25.9375 C0.36828125 26.11152344 -0.5134375 26.28554687 -1.421875 26.46484375 C-3.63235053 26.92368488 -5.81512068 27.43336074 -8 28 C-8.30497051 19.00336984 -8.30497051 19.00336984 -6 15 C-5.01 14.67 -4.02 14.34 -3 14 C-3 11.03 -3 8.06 -3 5 C-3.66 5 -4.32 5 -5 5 C-5 5.99 -5 6.98 -5 8 C-5.66 8 -6.32 8 -7 8 C-6.44414399 4.1090079 -4.34122117 0 0 0 Z " fill="#2E693A" transform="translate(43,51)"/>
<path d="M0 0 C6.1254831 0.70275234 12.24464989 0.53258193 18.28125 -0.73828125 C18.28125 0.25171875 18.28125 1.24171875 18.28125 2.26171875 C11.82308572 5.06678001 5.38635916 4.31397057 -1.48828125 4.0078125 C-7.2593973 3.87323229 -10.89117075 4.4711128 -15.88720703 7.35791016 C-18.81414202 8.8022601 -21.50970688 8.64542888 -24.71875 8.51171875 C-25.853125 8.475625 -26.9875 8.43953125 -28.15625 8.40234375 C-29.001875 8.3559375 -29.8475 8.30953125 -30.71875 8.26171875 C-30.71875 7.93171875 -30.71875 7.60171875 -30.71875 7.26171875 C-29.70167969 7.13216797 -29.70167969 7.13216797 -28.6640625 7 C-22.41145554 6.05604687 -17.44096618 4.45345986 -11.91015625 1.3828125 C-7.6168944 -0.8135621 -4.76604671 -0.68467462 0 0 Z " fill="#B38E5D" transform="translate(50.71875,83.73828125)"/>
<path d="M0 0 C0 0.33 0 0.66 0 1 C-1.15757813 0.97679688 -2.31515625 0.95359375 -3.5078125 0.9296875 C-5.04686851 0.91091852 -6.58593155 0.89271954 -8.125 0.875 C-8.88554688 0.85824219 -9.64609375 0.84148437 -10.4296875 0.82421875 C-15.06425958 0.78426554 -18.61267707 1.33695871 -23 3 C-28.37931034 3.31034483 -28.37931034 3.31034483 -31 2 C-37.7343041 1.64774409 -44.342642 1.97579108 -51 3 C-47.23386225 -0.76613775 -42.91150675 -2.19442546 -37.6875 -2.25 C-34.38420079 -2.14870633 -31.15279771 -1.7828595 -27.875 -1.375 C-17.29793786 -0.18344825 -10.56499157 -4.52785353 0 0 Z " fill="#9D7C54" transform="translate(85,91)"/>
<path d="M0 0 C0.66 0.33 1.32 0.66 2 1 C1.34 4.96 0.68 8.92 0 13 C0.763125 12.505 1.52625 12.01 2.3125 11.5 C10.36175324 8.2257275 18.17613977 9.75454687 26 13 C26 13.33 26 13.66 26 14 C19.25 14.125 19.25 14.125 17 13 C8.98052643 11.8646265 3.56671413 13.6966438 -3.37109375 17.6875 C-6 19 -6 19 -10 19 C-10 18.34 -10 17.68 -10 17 C-11.134375 16.87625 -12.26875 16.7525 -13.4375 16.625 C-14.613125 16.41875 -15.78875 16.2125 -17 16 C-17.33 15.34 -17.66 14.68 -18 14 C-15.03 14.33 -12.06 14.66 -9 15 C-9 15.66 -9 16.32 -9 17 C-6.69 16.34 -4.38 15.68 -2 15 C-1.90912109 13.75283203 -1.90912109 13.75283203 -1.81640625 12.48046875 C-1.73261719 11.39378906 -1.64882813 10.30710937 -1.5625 9.1875 C-1.48128906 8.10855469 -1.40007813 7.02960938 -1.31640625 5.91796875 C-1 3 -1 3 0 0 Z " fill="#DEE7D0" transform="translate(35,66)"/>
<path d="M0 0 C1.32 0 2.64 0 4 0 C3.67 1.32 3.34 2.64 3 4 C1.68 3.67 0.36 3.34 -1 3 C-1 4.32 -1 5.64 -1 7 C3.95 7 8.9 7 14 7 C14 7.33 14 7.66 14 8 C8.72 8 3.44 8 -2 8 C-2 7.01 -2 6.02 -2 5 C-7.94 5.495 -7.94 5.495 -14 6 C-14.33 9.3 -14.66 12.6 -15 16 C-15.33 14.68 -15.66 13.36 -16 12 C-16.66 12 -17.32 12 -18 12 C-18.1953125 5.9453125 -18.1953125 5.9453125 -18 4 C-15.16217343 1.16217343 -12.24587598 1.58247996 -8.4375 1.4375 C-3.84900773 1.64289991 -3.84900773 1.64289991 0 0 Z " fill="#96B0A3" transform="translate(88,48)"/>
<path d="M0 0 C0.99 0.33 1.98 0.66 3 1 C3 1.66 3 2.32 3 3 C3.66 3 4.32 3 5 3 C4.67 4.32 4.34 5.64 4 7 C3.34 7 2.68 7 2 7 C1.67 8.32 1.34 9.64 1 11 C1.66 11 2.32 11 3 11 C3 10.01 3 9.02 3 8 C3.99 7.67 4.98 7.34 6 7 C6 10.3 6 13.6 6 17 C4.68 17.33 3.36 17.66 2 18 C2 17.34 2 16.68 2 16 C0.68 15.67 -0.64 15.34 -2 15 C-2 11.37 -2 7.74 -2 4 C-1.34 4 -0.68 4 0 4 C0 2.68 0 1.36 0 0 Z " fill="#B49916" transform="translate(35,48)"/>
<path d="M0 0 C2.875 -0.125 2.875 -0.125 6 0 C6.66 0.66 7.32 1.32 8 2 C7.01 2.66 6.02 3.32 5 4 C5.99 4.66 6.98 5.32 8 6 C4.25 9 4.25 9 2 9 C2 8.34 2 7.68 2 7 C-0.16874252 7.50603992 -1.99967627 7.99983813 -4 9 C-6.50411877 9.18072687 -8.98446174 9.30675055 -11.4921875 9.38671875 C-12.60571091 9.42500542 -12.60571091 9.42500542 -13.74172974 9.46406555 C-15.31357777 9.51609594 -16.88551389 9.56552027 -18.45751953 9.61254883 C-20.85891808 9.6870014 -23.25935197 9.77771193 -25.66015625 9.86914062 C-27.18746846 9.91766981 -28.7148119 9.96522765 -30.2421875 10.01171875 C-30.95897675 10.04077805 -31.67576599 10.06983734 -32.41427612 10.09977722 C-36.13846708 10.19340928 -38.84246328 10.08246823 -42 8 C-40.34230591 7.97812622 -40.34230591 7.97812622 -38.65112305 7.95581055 C-34.55264861 7.89785734 -30.45472533 7.82062481 -26.35668945 7.73754883 C-24.58269188 7.70428536 -22.8085881 7.67625782 -21.03442383 7.65356445 C-18.48472824 7.62004398 -15.93600708 7.56773135 -13.38671875 7.51171875 C-12.19594978 7.50213387 -12.19594978 7.50213387 -10.98112488 7.49235535 C-6.72267804 7.45472717 -6.72267804 7.45472717 -3.10083008 5.46801758 C-2.73755615 4.98357178 -2.37428223 4.49912598 -2 4 C-1.34 4 -0.68 4 0 4 C0 2.68 0 1.36 0 0 Z " fill="#BDDFC9" transform="translate(115,79)"/>
<path d="M0 0 C0.495 0.495 0.495 0.495 1 1 C3.32817964 1.36760731 5.6618385 1.70241581 8 2 C7.67 2.66 7.34 3.32 7 4 C6.07380859 3.89171875 6.07380859 3.89171875 5.12890625 3.78125 C-7.30782191 2.33702689 -7.30782191 2.33702689 -19 6 C-18.67 6.66 -18.34 7.32 -18 8 C-20.31 8 -22.62 8 -25 8 C-25 7.34 -25 6.68 -25 6 C-27.97 6 -30.94 6 -34 6 C-34 5.67 -34 5.34 -34 5 C-33.2265625 4.97421875 -32.453125 4.9484375 -31.65625 4.921875 C-24.55928485 4.62254238 -24.55928485 4.62254238 -18.125 1.9375 C-12.66205951 -1.26371354 -6.11820816 -0.50639172 0 0 Z " fill="#E7E8D5" transform="translate(55,87)"/>
<path d="M0 0 C0.33 0 0.66 0 1 0 C1.33 3.3 1.66 6.6 2 10 C3.65 10.33 5.3 10.66 7 11 C7.33 12.98 7.66 14.96 8 17 C3.05 17 -1.9 17 -7 17 C-7 15.68 -7 14.36 -7 13 C-6.01 13 -5.02 13 -4 13 C-3.67 12.34 -3.34 11.68 -3 11 C-2.67 11.99 -2.34 12.98 -2 14 C-1.34 9.38 -0.68 4.76 0 0 Z " fill="#266E21" transform="translate(94,38)"/>
<path d="M0 0 C2.8125 0.375 2.8125 0.375 3.8125 1.375 C3.2125 7.975 3.2125 7.975 0.8125 10.375 C-2.8125 10.5 -2.8125 10.5 -6.1875 10.375 C-6.9375 8.1875 -6.9375 8.1875 -7.1875 5.375 C-5.15327039 1.71338671 -4.22671004 0.49726 0 0 Z " fill="#3C8E3B" transform="translate(103.1875,24.625)"/>
<path d="M0 0 C6.43014706 0.48529412 6.43014706 0.48529412 8.9375 2.75 C10.17893286 5.37891664 10.31080287 7.12507347 10 10 C9.67 10.33 9.34 10.66 9 11 C5.5625 10.75 5.5625 10.75 2 10 C-0.4294516 6.3558226 -0.16179575 4.28758728 0 0 Z " fill="#3B8F3A" transform="translate(83,23)"/>
<path d="M0 0 C5.42465753 0.48219178 5.42465753 0.48219178 7.875 2.6875 C9.28983481 5.59577155 9.21776233 7.80615246 9 11 C2.61396777 10.5180353 2.61396777 10.5180353 0 8.3125 C-1.33721014 5.22020156 -0.80305964 3.21223855 0 0 Z " fill="#15602F" transform="translate(97,37)"/>
<path d="M0 0 C1 1 1 1 1.25 3.875 C1 7 1 7 -0.125 8.875 C-2.80858771 10.48515263 -4.93550972 10.26647742 -8 10 C-9 9 -9 9 -9.3125 6.6875 C-9 4 -9 4 -7.3125 1.6875 C-4.59648169 -0.2944593 -3.28838577 -0.44437646 0 0 Z " fill="#14642B" transform="translate(91,36)"/>
<path d="M0 0 C2.4294516 3.6441774 2.16179575 5.71241272 2 10 C2.99 10.33 3.98 10.66 5 11 C5 11.66 5 12.32 5 13 C4.34 13 3.68 13 3 13 C2.97421875 14.05960938 2.9484375 15.11921875 2.921875 16.2109375 C2.8656022 17.59900001 2.80825467 18.98701925 2.75 20.375 C2.72873047 21.42300781 2.72873047 21.42300781 2.70703125 22.4921875 C2.609375 24.5234375 2.609375 24.5234375 2 28 C-0.78705093 30.29022881 -2.28455638 30 -6 30 C-5.505 28.515 -5.505 28.515 -5 27 C-4.67 27 -4.34 27 -4 27 C-4 26.34 -4 25.68 -4 25 C-3.01 25 -2.02 25 -1 25 C-0.67 16.75 -0.34 8.5 0 0 Z " fill="#2D6231" transform="translate(32,53)"/>
<path d="M0 0 C-0.1875 1.875 -0.1875 1.875 -1 4 C-5.63729295 6.63248347 -10.68677649 6.40677733 -15.875 6.5625 C-21.65743178 6.76321957 -27.2865569 7.05813813 -33 8 C-32.34 7.34 -31.68 6.68 -31 6 C-30.01 6 -29.02 6 -28 6 C-27.67 5.01 -27.34 4.02 -27 3 C-25.68 3 -24.36 3 -23 3 C-23 3.66 -23 4.32 -23 5 C-16.04986599 4.73573635 -10.35765314 3.70000085 -3.99609375 0.83984375 C-2 0 -2 0 0 0 Z " fill="#C1DFC9" transform="translate(116,88)"/>
<path d="M0 0 C3.96 0 7.92 0 12 0 C12.33 0.99 12.66 1.98 13 3 C10.66836622 3.67258667 8.3347961 4.33847444 6 5 C5.3709375 5.185625 4.741875 5.37125 4.09375 5.5625 C1.59933571 6.0837209 -0.70383036 6.09600223 -3.25 6.0625 C-4.14203125 6.05347656 -5.0340625 6.04445313 -5.953125 6.03515625 C-6.62859375 6.02355469 -7.3040625 6.01195313 -8 6 C-6 4 -6 4 -3.4375 3 C-0.85158559 2.25129886 -0.85158559 2.25129886 0 0 Z " fill="#C2DBBE" transform="translate(68,91)"/>
<path d="M0 0 C0.66 0 1.32 0 2 0 C2.86111516 3.02769315 3.18230893 5.84266637 3.31640625 8.984375 C3.35830078 9.91894531 3.40019531 10.85351562 3.44335938 11.81640625 C3.48267578 12.78449219 3.52199219 13.75257812 3.5625 14.75 C3.60568359 15.73355469 3.64886719 16.71710938 3.69335938 17.73046875 C3.79922052 20.15351275 3.90130171 22.5766554 4 25 C3.01 25 2.02 25 1 25 C0 24 0 24 -0.11352539 21.68334961 C-0.10828857 20.68311768 -0.10305176 19.68288574 -0.09765625 18.65234375 C-0.09443359 17.57275391 -0.09121094 16.49316406 -0.08789062 15.38085938 C-0.07951172 14.24455078 -0.07113281 13.10824219 -0.0625 11.9375 C-0.05798828 10.79732422 -0.05347656 9.65714844 -0.04882812 8.48242188 C-0.03699747 5.65489649 -0.0205141 2.8274736 0 0 Z " fill="#3D655B" transform="translate(70,60)"/>
<path d="M0 0 C0.33 0 0.66 0 1 0 C1 10.89 1 21.78 1 33 C-0.79661136 29.40677728 -1.31608816 27.7077951 -1.625 23.875 C-1.69976562 23.00617187 -1.77453125 22.13734375 -1.8515625 21.2421875 C-1.94502909 19.83035007 -2 18.41492789 -2 17 C-5.37462715 17.54723683 -7.08235 18.0549 -10 20 C-10.33 19.34 -10.66 18.68 -11 18 C-7.71195019 15.08772731 -5.40114397 13.50298788 -1 13 C-0.67 12.01 -0.34 11.02 0 10 C-0.66 10 -1.32 10 -2 10 C-1.34 6.7 -0.68 3.4 0 0 Z " fill="#EAE4BE" transform="translate(31,40)"/>
<path d="M0 0 C0.99 0 1.98 0 3 0 C3.99 1.98 4.98 3.96 6 6 C5.01 6 4.02 6 3 6 C3.60183749 8.02045442 4.27306096 10.02111039 5 12 C5.66 12.33 6.32 12.66 7 13 C6.67 13.66 6.34 14.32 6 15 C4.02 15 2.04 15 0 15 C0 10.05 0 5.1 0 0 Z " fill="#DFE9DE" transform="translate(73,68)"/>
<path d="M0 0 C2.5 1.25 2.5 1.25 5 3 C5 4.32 5 5.64 5 7 C5.66 7 6.32 7 7 7 C6.67 8.32 6.34 9.64 6 11 C3.69 11.66 1.38 12.32 -1 13 C-0.979375 12.236875 -0.95875 11.47375 -0.9375 10.6875 C-0.87057159 7.89814214 -0.87057159 7.89814214 -2 5 C-1.34 5 -0.68 5 0 5 C0 3.35 0 1.7 0 0 Z " fill="#F0BA4A" transform="translate(24,43)"/>
<path d="M0 0 C0 0.33 0 0.66 0 1 C-1.78857422 0.98259766 -1.78857422 0.98259766 -3.61328125 0.96484375 C-5.17968594 0.95546408 -6.74609231 0.94636407 -8.3125 0.9375 C-9.09818359 0.92912109 -9.88386719 0.92074219 -10.69335938 0.91210938 C-11.8293457 0.90727539 -11.8293457 0.90727539 -12.98828125 0.90234375 C-13.68477783 0.89710693 -14.38127441 0.89187012 -15.09887695 0.88647461 C-17.22497968 0.93104009 -17.22497968 0.93104009 -20 2 C-21.39439664 2.06665376 -22.79169875 2.08538199 -24.1875 2.0625 C-26.0746875 2.0315625 -26.0746875 2.0315625 -28 2 C-17.96969557 -3.43308157 -10.57470239 -4.53201531 0 0 Z " fill="#7C6748" transform="translate(85,91)"/>
<path d="M0 0 C1.62418745 -0.08090971 3.24951745 -0.13914995 4.875 -0.1875 C5.77992187 -0.22230469 6.68484375 -0.25710937 7.6171875 -0.29296875 C8.79667969 -0.14794922 8.79667969 -0.14794922 10 0 C10.66 0.99 11.32 1.98 12 3 C11.67 3.33 11.34 3.66 11 4 C10.8415735 6.0708472 10.74875578 8.14678029 10.68359375 10.22265625 C10.64169922 11.48271484 10.59980469 12.74277344 10.55664062 14.04101562 C10.51682404 15.38150736 10.47711186 16.7220022 10.4375 18.0625 C10.39431958 19.40691523 10.35070544 20.7513166 10.30664062 22.09570312 C10.20014642 25.3970234 10.0981354 28.69842236 10 32 C9.67 32 9.34 32 9 32 C9 22.43 9 12.86 9 3 C6.36 3 3.72 3 1 3 C0.67 2.01 0.34 1.02 0 0 Z " fill="#587876" transform="translate(101,50)"/>
<path d="M0 0 C2.97 0 5.94 0 9 0 C9 0.33 9 0.66 9 1 C7.35 1 5.7 1 4 1 C4 4.96 4 8.92 4 13 C3.34 13 2.68 13 2 13 C1.67 13.66 1.34 14.32 1 15 C1 14.34 1 13.68 1 13 C0.34 13 -0.32 13 -1 13 C-1.66 11.68 -2.32 10.36 -3 9 C-2.01 8.67 -1.02 8.34 0 8 C0 5.36 0 2.72 0 0 Z " fill="#7AB250" transform="translate(39,38)"/>
<path d="M0 0 C-1.43806022 2.87612044 -3.18341214 2.92802918 -6.1875 3.9375 C-9.4347257 5.06056899 -12.36711143 6.18689309 -15.4375 7.75 C-18 9 -18 9 -22 9 C-22 8.34 -22 7.68 -22 7 C-22.99 6.67 -23.98 6.34 -25 6 C-24.28714844 5.90203125 -23.57429688 5.8040625 -22.83984375 5.703125 C-16.22454921 4.70568874 -16.22454921 4.70568874 -10.25 1.875 C-6.51478656 -0.27993083 -4.24027689 -0.34614505 0 0 Z " fill="#EDEBD6" transform="translate(49,81)"/>
<path d="M0 0 C0.66 0.33 1.32 0.66 2 1 C1.67 2.32 1.34 3.64 1 5 C-10.55 5 -22.1 5 -34 5 C-34 4.67 -34 4.34 -34 4 C-33.14768799 3.98541748 -32.29537598 3.97083496 -31.41723633 3.95581055 C-28.23928825 3.89456715 -25.06197454 3.82037971 -21.88452148 3.73754883 C-20.51224042 3.70440194 -19.13982638 3.67633829 -17.76733398 3.65356445 C-15.78862234 3.61983234 -13.81028624 3.5659851 -11.83203125 3.51171875 C-10.64327393 3.48553467 -9.4545166 3.45935059 -8.22973633 3.43237305 C-4.75941827 2.96779271 -2.90881618 1.86005273 0 0 Z " fill="#BAD3CA" transform="translate(108,79)"/>
<path d="M0 0 C0.92941406 0.0103125 1.85882813 0.020625 2.81640625 0.03125 C4.20666016 0.01578125 4.20666016 0.01578125 5.625 0 C8.37890625 0.53125 8.37890625 0.53125 13.37890625 4.53125 C6.77890625 4.53125 0.17890625 4.53125 -6.62109375 4.53125 C-2.62109375 0.53125 -2.62109375 0.53125 0 0 Z " fill="#6AA147" transform="translate(40.62109375,33.46875)"/>
<path d="M0 0 C3.3 0 6.6 0 10 0 C8.68 0.33 7.36 0.66 6 1 C6 4.63 6 8.26 6 12 C5.34 12 4.68 12 4 12 C4 11.01 4 10.02 4 9 C3.34 9 2.68 9 2 9 C2 6.36 2 3.72 2 1 C1.34 0.67 0.68 0.34 0 0 Z " fill="#559B51" transform="translate(58,42)"/>
<path d="M0 0 C0.99 0.33 1.98 0.66 3 1 C3 1.66 3 2.32 3 3 C3.66 3 4.32 3 5 3 C4.67 4.32 4.34 5.64 4 7 C3.34 7 2.68 7 2 7 C1.67 8.65 1.34 10.3 1 12 C0.01 11.67 -0.98 11.34 -2 11 C-2 8.69 -2 6.38 -2 4 C-1.34 4 -0.68 4 0 4 C0 2.68 0 1.36 0 0 Z " fill="#BBAB1F" transform="translate(35,48)"/>
<path d="M0 0 C0.33 0.99 0.66 1.98 1 3 C-3.81328743 5.56708663 -8.68785218 5.45283883 -14 5 C-17.125 4 -17.125 4 -19 3 C-18.67 2.34 -18.34 1.68 -18 1 C-17.11957031 1.09539062 -16.23914062 1.19078125 -15.33203125 1.2890625 C-14.17058594 1.39992188 -13.00914063 1.51078125 -11.8125 1.625 C-10.66394531 1.74101563 -9.51539063 1.85703125 -8.33203125 1.9765625 C-4.96669584 2.00023426 -2.98778294 1.47419799 0 0 Z " fill="#CCD8C3" transform="translate(67,80)"/>
<path d="M0 0 C-0.3125 1.9375 -0.3125 1.9375 -1 4 C-4.61867559 5.2062252 -7.92506251 5.10816918 -11.6875 5.0625 C-12.38939453 5.05798828 -13.09128906 5.05347656 -13.81445312 5.04882812 C-15.54300538 5.03706927 -17.27151365 5.01913454 -19 5 C-16.29567328 2.29567328 -14.25780287 2.43216653 -10.5 1.9375 C-7.01184145 1.47061152 -3.37099512 0 0 0 Z " fill="#BE9762" transform="translate(36,82)"/>
<path d="M0 0 C0.33 0 0.66 0 1 0 C1.33 12.54 1.66 25.08 2 38 C0.68 37.34 -0.64 36.68 -2 36 C-1.34 36 -0.68 36 0 36 C0 24.12 0 12.24 0 0 Z " fill="#5C866F" transform="translate(56,41)"/>
<path d="M0 0 C2 2 2 2 2.4375 4.4375 C3.09965336 7.4539764 3.45333658 8.27484091 6 10 C8.65238676 10.83869937 11.27191275 11.41860436 14 12 C14 12.33 14 12.66 14 13 C9.07872966 13.16682272 5.49656104 13.24828052 1 11 C1 12.65 1 14.3 1 16 C0.67 16 0.34 16 0 16 C0 10.72 0 5.44 0 0 Z " fill="#DDE6DB" transform="translate(95,37)"/>
<path d="M0 0 C0.66 0.33 1.32 0.66 2 1 C4.204364 1.22950319 6.41392173 1.41075933 8.625 1.5625 C9.81351563 1.64628906 11.00203125 1.73007813 12.2265625 1.81640625 C13.59941406 1.90728516 13.59941406 1.90728516 15 2 C15 2.33 15 2.66 15 3 C17.64 3.33 20.28 3.66 23 4 C23 4.33 23 4.66 23 5 C19.37 5 15.74 5 12 5 C12 4.34 12 3.68 12 3 C11.2575 3.350625 10.515 3.70125 9.75 4.0625 C5.25326563 5.59547763 2.24874244 3.77030935 -2 2 C-1.34 1.34 -0.68 0.68 0 0 Z " fill="#9ABCA4" transform="translate(81,88)"/>
<path d="M0 0 C1.485 0.99 1.485 0.99 3 2 C3.54501065 4.75711269 3.92549765 7.34152546 4.1875 10.125 C4.26935547 10.87910156 4.35121094 11.63320312 4.43554688 12.41015625 C4.6358897 14.27216607 4.81954036 16.13595811 5 18 C3.25728062 15.702779 1.60088848 13.40133271 0 11 C0.3125 9 0.3125 9 1 7 C1.33 6.01 1.66 5.02 2 4 C1.01 4.33 0.02 4.66 -1 5 C-0.67 3.35 -0.34 1.7 0 0 Z " fill="#F5F3E1" transform="translate(25,57)"/>
<path d="M0 0 C1.32 0.99 2.64 1.98 4 3 C3.47731534 5.76276177 2.89130413 8.3260876 2 11 C0.68 10.67 -0.64 10.34 -2 10 C-2 8.02 -2 6.04 -2 4 C-1.34 4 -0.68 4 0 4 C0 2.68 0 1.36 0 0 Z " fill="#EEB73E" transform="translate(19,50)"/>
<path d="M0 0 C0 0.99 0 1.98 0 3 C-4.93367197 4.97346879 -8.76257341 5.34916177 -14 5 C-14.66 4.34 -15.32 3.68 -16 3 C-15.30132812 2.86722656 -14.60265625 2.73445313 -13.8828125 2.59765625 C-12.51769531 2.33275391 -12.51769531 2.33275391 -11.125 2.0625 C-10.22007813 1.88847656 -9.31515625 1.71445313 -8.3828125 1.53515625 C-1.54744526 0 -1.54744526 0 0 0 Z " fill="#6C4B2F" transform="translate(69,83)"/>
<path d="M0 0 C5.841744 -0.35050464 9.8531808 -0.16727335 15 3 C11.57310364 4.14229879 9.38897782 3.90861076 5.8125 3.5625 C4.18248047 3.40974609 4.18248047 3.40974609 2.51953125 3.25390625 C1.27236328 3.12822266 1.27236328 3.12822266 0 3 C0 2.01 0 1.02 0 0 Z " fill="#478648" transform="translate(58,38)"/>
<path d="M0 0 C0.33 0 0.66 0 1 0 C1.33 5.94 1.66 11.88 2 18 C1.01 18.33 0.02 18.66 -1 19 C-1.02683987 16.02077407 -1.04676037 13.04178705 -1.0625 10.0625 C-1.07087891 9.21236328 -1.07925781 8.36222656 -1.08789062 7.48632812 C-1.09111328 6.67744141 -1.09433594 5.86855469 -1.09765625 5.03515625 C-1.10289307 4.2862915 -1.10812988 3.53742676 -1.11352539 2.76586914 C-1 1 -1 1 0 0 Z " fill="#0D4628" transform="translate(59,60)"/>
<path d="M0 0 C0 0.99 0 1.98 0 3 C-0.99 3 -1.98 3 -3 3 C-3.33 3.99 -3.66 4.98 -4 6 C-5.32 6 -6.64 6 -8 6 C-8.33 6.99 -8.66 7.98 -9 9 C-9.36337162 5.72965541 -9.28544288 4.39116247 -7.3125 1.6875 C-4.60883753 -0.28544288 -3.27034459 -0.36337162 0 0 Z " fill="#428D3D" transform="translate(91,36)"/>
<path d="M0 0 C-0.1875 1.875 -0.1875 1.875 -1 4 C-4.91405938 6.30238787 -8.54719212 6.17461992 -13 6 C-13.33 5.34 -13.66 4.68 -14 4 C-12.7625 3.71125 -11.525 3.4225 -10.25 3.125 C-6.80894357 2.2738553 -3.44453207 0 0 0 Z " fill="#61432B" transform="translate(68,77)"/>
<path d="M0 0 C2.4294516 3.6441774 2.16179575 5.71241272 2 10 C2.99 10.33 3.98 10.66 5 11 C5 11.66 5 12.32 5 13 C4.34 13 3.68 13 3 13 C2.67 16.3 2.34 19.6 2 23 C1.67 23 1.34 23 1 23 C0.02840067 15.31395526 -0.10920422 7.74136601 0 0 Z " fill="#487A36" transform="translate(32,53)"/>
<path d="M0 0 C2.475 0.495 2.475 0.495 5 1 C5.33 2.98 5.66 4.96 6 7 C4.35 7 2.7 7 1 7 C0.67 4.69 0.34 2.38 0 0 Z " fill="#286A31" transform="translate(96,48)"/>
<path d="M0 0 C2.31 0.33 4.62 0.66 7 1 C7 1.99 7 2.98 7 4 C3.535 5.485 3.535 5.485 0 7 C0 4.69 0 2.38 0 0 Z " fill="#7FB944" transform="translate(83,23)"/>
<path d="M0 0 C0.90105469 0.00902344 1.80210938 0.01804687 2.73046875 0.02734375 C3.41753906 0.03894531 4.10460937 0.05054687 4.8125 0.0625 C4.4825 1.0525 4.1525 2.0425 3.8125 3.0625 C-0.1475 3.0625 -4.1075 3.0625 -8.1875 3.0625 C-8.1875 2.4025 -8.1875 1.7425 -8.1875 1.0625 C-5.17259443 0.05753148 -3.14568308 -0.04085303 0 0 Z " fill="#CEE7D3" transform="translate(95.1875,93.9375)"/>
<path d="M0 0 C0 0.66 0 1.32 0 2 C-0.99 2.33 -1.98 2.66 -3 3 C-2.67 3.66 -2.34 4.32 -2 5 C-4.31 5 -6.62 5 -9 5 C-9 4.34 -9 3.68 -9 3 C-11.97 3 -14.94 3 -18 3 C-18 2.67 -18 2.34 -18 2 C-17.16855469 1.93941406 -16.33710938 1.87882812 -15.48046875 1.81640625 C-13.85044922 1.69072266 -13.85044922 1.69072266 -12.1875 1.5625 C-11.10855469 1.48128906 -10.02960937 1.40007812 -8.91796875 1.31640625 C-5.75810561 0.97377049 -3.1932719 0 0 0 Z " fill="#D8DDC8" transform="translate(39,90)"/>
<path d="M0 0 C0.66 0 1.32 0 2 0 C3.00109515 3.31070838 3.10356134 6.30084769 3.0625 9.75 C3.05347656 10.73484375 3.04445313 11.7196875 3.03515625 12.734375 C3.02355469 13.48203125 3.01195313 14.2296875 3 15 C1 14 1 14 0.37890625 12.265625 C-0.04706889 9.71855716 -0.09646629 7.33143831 -0.0625 4.75 C-0.05347656 3.85796875 -0.04445313 2.9659375 -0.03515625 2.046875 C-0.02355469 1.37140625 -0.01195313 0.6959375 0 0 Z " fill="#5B7D73" transform="translate(70,60)"/>
<path d="M0 0 C0.33 0 0.66 0 1 0 C1 6.27 1 12.54 1 19 C-1.7530057 13.49398861 -2.86020856 7.86736187 -1.0625 1.875 C-0.711875 1.25625 -0.36125 0.6375 0 0 Z " fill="#CFD9C5" transform="translate(31,54)"/>
<path d="M0 0 C1.32 0 2.64 0 4 0 C3.67 1.32 3.34 2.64 3 4 C1.68 3.67 0.36 3.34 -1 3 C-1 4.32 -1 5.64 -1 7 C3.95 7 8.9 7 14 7 C14 7.33 14 7.66 14 8 C8.72 8 3.44 8 -2 8 C-2 2 -2 2 0 0 Z " fill="#74A261" transform="translate(88,48)"/>
<path d="M0 0 C-8.03501094 4.07877462 -8.03501094 4.07877462 -12.0625 3.75 C-12.701875 3.5025 -13.34125 3.255 -14 3 C-14 2.34 -14 1.68 -14 1 C-14.66 0.67 -15.32 0.34 -16 0 C-15.07767578 0.01740234 -15.07767578 0.01740234 -14.13671875 0.03515625 C-12.92435547 0.04869141 -12.92435547 0.04869141 -11.6875 0.0625 C-10.88699219 0.07410156 -10.08648437 0.08570312 -9.26171875 0.09765625 C-0.85495283 -0.26533019 -0.85495283 -0.26533019 0 0 Z " fill="#DAE7D6" transform="translate(69,93)"/>
<path d="M0 0 C0.66 0 1.32 0 2 0 C2 1.32 2 2.64 2 4 C-2.29 4 -6.58 4 -11 4 C-11 3.34 -11 2.68 -11 2 C-10.28972656 1.93941406 -9.57945313 1.87882812 -8.84765625 1.81640625 C-7.46900391 1.69072266 -7.46900391 1.69072266 -6.0625 1.5625 C-5.14597656 1.48128906 -4.22945313 1.40007812 -3.28515625 1.31640625 C-1.03840268 1.23955024 -1.03840268 1.23955024 0 0 Z " fill="#1D4947" transform="translate(110,82)"/>
<path d="M0 0 C2.875 0.3125 2.875 0.3125 6 1 C6.66 1.99 7.32 2.98 8 4 C5 5 5 5 2.8125 4.0625 C2.214375 3.711875 1.61625 3.36125 1 3 C1 3.99 1 4.98 1 6 C0.34 6 -0.32 6 -1 6 C-0.67 4.02 -0.34 2.04 0 0 Z " fill="#2E7B3B" transform="translate(97,37)"/>
<path d="M0 0 C0.66 0 1.32 0 2 0 C2.2475 0.94875 2.495 1.8975 2.75 2.875 C3.6857077 6.08693191 3.6857077 6.08693191 6.125 7.375 C6.74375 7.58125 7.3625 7.7875 8 8 C5.36 8.33 2.72 8.66 0 9 C-1.125 3.375 -1.125 3.375 0 0 Z " fill="#F9FBF7" transform="translate(94,29)"/>
<path d="M0 0 C1.67381019 0.29537827 3.33911955 0.63893903 5 1 C7.33177975 1.34403308 9.66487041 1.67949202 12 2 C11.67 2.66 11.34 3.32 11 4 C9.37419034 3.88601335 7.74932843 3.75844341 6.125 3.625 C5.22007813 3.55539063 4.31515625 3.48578125 3.3828125 3.4140625 C1 3 1 3 -1 1 C-0.67 0.67 -0.34 0.34 0 0 Z " fill="#D8E0CD" transform="translate(51,87)"/>
<path d="M0 0 C1.2077558 3.62326739 0.54311128 4.64146369 -1 8 C-2.65 7.67 -4.3 7.34 -6 7 C-4.77065985 3.31197956 -3.06140622 2.27643027 0 0 Z " fill="#ECB854" transform="translate(24,57)"/>
<path d="M0 0 C-1.32 0.33 -2.64 0.66 -4 1 C-4 1.66 -4 2.32 -4 3 C-1.69 3 0.62 3 3 3 C3 3.33 3 3.66 3 4 C-0.96 4 -4.92 4 -9 4 C-9 3.01 -9 2.02 -9 1 C-5.92677456 0.08941469 -3.19902639 -0.08886184 0 0 Z " fill="#E8F1ED" transform="translate(102,56)"/>
<path d="M0 0 C-1.16142685 4.35535069 -2.07699505 6.64619703 -6 9 C-5.38983051 3.50847458 -5.38983051 3.50847458 -3.5625 1.125 C-2 0 -2 0 0 0 Z " fill="#79B84C" transform="translate(102,25)"/>
<path d="M0 0 C0 0.33 0 0.66 0 1 C-1.89492006 1.33848652 -3.79098466 1.67056911 -5.6875 2 C-6.74324219 2.185625 -7.79898438 2.37125 -8.88671875 2.5625 C-11.64904062 2.95068074 -14.21742043 3.08259976 -17 3 C-11.9187254 -2.0812746 -6.59137527 -0.94711023 0 0 Z " fill="#AFA078" transform="translate(51,91)"/>
<path d="M0 0 C1.17949219 0.11085938 2.35898437 0.22171875 3.57421875 0.3359375 C4.47785156 0.43132812 5.38148437 0.52671875 6.3125 0.625 C6.3125 0.955 6.3125 1.285 6.3125 1.625 C0.78282059 2.33533431 -4.18733036 2.92767176 -9.6875 1.625 C-5.94784036 -0.86810643 -4.39679359 -0.4353261 0 0 Z " fill="#9F6E44" transform="translate(53.6875,84.375)"/>
<path d="M0 0 C-0.99 0.66 -1.98 1.32 -3 2 C-2.01 2.66 -1.02 3.32 0 4 C-1.45792884 4.05399736 -2.91642712 4.09279177 -4.375 4.125 C-5.18710937 4.14820312 -5.99921875 4.17140625 -6.8359375 4.1953125 C-9 4 -9 4 -11 2 C-7.17679443 0.57741188 -4.08718695 -0.24042276 0 0 Z " fill="#C79767" transform="translate(50,83)"/>
<path d="M0 0 C0.33 0 0.66 0 1 0 C1 3.96 1 7.92 1 12 C0.67 12 0.34 12 0 12 C0 10.35 0 8.7 0 7 C-1.32 6.67 -2.64 6.34 -4 6 C-2.69593116 3.98079663 -1.36176581 1.98075027 0 0 Z " fill="#EDF2E9" transform="translate(92,41)"/>
<path d="M0 0 C0.66 0.33 1.32 0.66 2 1 C1.83628906 1.56203125 1.67257813 2.1240625 1.50390625 2.703125 C0.97135003 5.13059056 0.90101319 7.26889681 0.9375 9.75 C0.94652344 10.54921875 0.95554688 11.3484375 0.96484375 12.171875 C0.97644531 12.77515625 0.98804688 13.3784375 1 14 C0.01 14 -0.98 14 -2 14 C-1.85866501 12.22880197 -1.71176792 10.45804713 -1.5625 8.6875 C-1.48128906 7.70136719 -1.40007813 6.71523437 -1.31640625 5.69921875 C-1 3 -1 3 0 0 Z " fill="#9CB293" transform="translate(35,66)"/>
<path d="M0 0 C0 2.64 0 5.28 0 8 C-0.33 6.68 -0.66 5.36 -1 4 C-2.32 4.33 -3.64 4.66 -5 5 C-5 5.99 -5 6.98 -5 8 C-5.66 8 -6.32 8 -7 8 C-6.44414399 4.1090079 -4.34122117 0 0 0 Z " fill="#457B32" transform="translate(43,51)"/>
<path d="M0 0 C0.33 0 0.66 0 1 0 C1 3.96 1 7.92 1 12 C0.34 12 -0.32 12 -1 12 C-1.33 12.66 -1.66 13.32 -2 14 C-2 13.34 -2 12.68 -2 12 C-2.66 12 -3.32 12 -4 12 C-4.33 11.01 -4.66 10.02 -5 9 C-3.68 9.33 -2.36 9.66 -1 10 C-0.67 6.7 -0.34 3.4 0 0 Z " fill="#639B41" transform="translate(42,39)"/>
<path d="M0 0 C6.625 0.625 6.625 0.625 10 4 C7.03 3.67 4.06 3.34 1 3 C0.67 2.01 0.34 1.02 0 0 Z " fill="#2E733D" transform="translate(44,34)"/>
<path d="M0 0 C4.51720311 -0.36625971 4.51720311 -0.36625971 6.8125 1.375 C8 3 8 3 8 5 C6.88625 4.505 6.88625 4.505 5.75 4 C2.86116688 2.77217129 2.86116688 2.77217129 -1 3 C-0.67 2.01 -0.34 1.02 0 0 Z " fill="#EEF2E2" transform="translate(19,74)"/>
<path d="M0 0 C1.10807948 3.32423843 0.76802174 4.67190578 0 8 C0 8.66 0 9.32 0 10 C-0.66 10 -1.32 10 -2 10 C-2.309375 8.88625 -2.61875 7.7725 -2.9375 6.625 C-3.82326483 3.2054845 -3.82326483 3.2054845 -5 1 C-3.35 0.67 -1.7 0.34 0 0 Z " fill="#D4B152" transform="translate(30,55)"/>
<path d="M0 0 C0 0.66 0 1.32 0 2 C0.66 2.33 1.32 2.66 2 3 C-2.62921525 4.0161692 -6.34462607 3.83796731 -11 3 C-11 2.67 -11 2.34 -11 2 C-9.5422647 1.664061 -8.08378894 1.33133376 -6.625 1 C-5.40683594 0.7215625 -5.40683594 0.7215625 -4.1640625 0.4375 C-2 0 -2 0 0 0 Z " fill="#C1C6B3" transform="translate(67,86)"/>
<path d="M0 0 C4 4.625 4 4.625 4 8 C1.69 7.34 -0.62 6.68 -3 6 C-2.34 5.34 -1.68 4.68 -1 4 C-0.3574765 1.93125966 -0.3574765 1.93125966 0 0 Z " fill="#F7F9F4" transform="translate(107,43)"/>
<path d="M0 0 C1.32 1.32 2.64 2.64 4 4 C3.67 4.99 3.34 5.98 3 7 C1.35 7 -0.3 7 -2 7 C-2 6.34 -2 5.68 -2 5 C-1.34 5 -0.68 5 0 5 C0 3.35 0 1.7 0 0 Z " fill="#F8D06B" transform="translate(24,43)"/>
<path d="M0 0 C0.99 0.33 1.98 0.66 3 1 C3 2.98 3 4.96 3 7 C1.68 7.33 0.36 7.66 -1 8 C-0.67 5.36 -0.34 2.72 0 0 Z " fill="#92C055" transform="translate(37,39)"/>
<path d="M0 0 C0 0.99 0 1.98 0 3 C-3.3 3.33 -6.6 3.66 -10 4 C-6.26899054 1.2017429 -4.49421532 0 0 0 Z " fill="#A8D4BA" transform="translate(116,88)"/>
<path d="M0 0 C3.3 0.33 6.6 0.66 10 1 C10 1.66 10 2.32 10 3 C5.06071112 3.3367697 4.21507278 3.16130459 0 0 Z " fill="#EDF2E2" transform="translate(15,82)"/>
<path d="M0 0 C-0.33 0.66 -0.66 1.32 -1 2 C-3.64860427 2.59355614 -6.29197322 2.74209269 -9 3 C-9 2.34 -9 1.68 -9 1 C-6.04335481 -0.4783226 -3.25770263 -0.06032783 0 0 Z " fill="#F3F2DF" transform="translate(49,81)"/>
<path d="M0 0 C4.8333472 -0.08333357 9.23692563 0.04738513 14 1 C14 1.33 14 1.66 14 2 C8.58264203 2.93402724 5.19548425 3.20808081 0 1 C0 0.67 0 0.34 0 0 Z " fill="#9D6D43" transform="translate(46,79)"/>
<path d="M0 0 C0.33 0.99 0.66 1.98 1 3 C0.01 3.99 -0.98 4.98 -2 6 C-3.32 5.34 -4.64 4.68 -6 4 C-6 3.34 -6 2.68 -6 2 C-4.7934375 1.7834375 -4.7934375 1.7834375 -3.5625 1.5625 C-1.07896294 1.25864751 -1.07896294 1.25864751 0 0 Z " fill="#4A893C" transform="translate(82,66)"/>
<path d="M0 0 C0 3.3 0 6.6 0 10 C-0.33 8.68 -0.66 7.36 -1 6 C-1.66 6 -2.32 6 -3 6 C-3 4.35 -3 2.7 -3 1 C-1 0 -1 0 0 0 Z " fill="#7B988E" transform="translate(73,54)"/>
<path d="M0 0 C0.33 0.66 0.66 1.32 1 2 C0.01 3.32 -0.98 4.64 -2 6 C-3.32 5.34 -4.64 4.68 -6 4 C-6 3.34 -6 2.68 -6 2 C-4.7934375 1.7834375 -4.7934375 1.7834375 -3.5625 1.5625 C-1.07896294 1.25864751 -1.07896294 1.25864751 0 0 Z " fill="#53933B" transform="translate(82,59)"/>
<path d="M0 0 C0.66 0 1.32 0 2 0 C1.67 2.64 1.34 5.28 1 8 C0.01 7.67 -0.98 7.34 -2 7 C-2 6.01 -2 5.02 -2 4 C-1.34 4 -0.68 4 0 4 C0 2.68 0 1.36 0 0 Z " fill="#E1C827" transform="translate(35,48)"/>
<path d="M0 0 C2.64 0.33 5.28 0.66 8 1 C5.38058783 2.74627478 3.96175123 3.38722388 1 4 C0.67 2.68 0.34 1.36 0 0 Z " fill="#DAEBD9" transform="translate(80,92)"/>
<path d="M0 0 C0.66 1.32 1.32 2.64 2 4 C0 6 0 6 -3.125 6.125 C-4.548125 6.063125 -4.548125 6.063125 -6 6 C-5.38125 5.938125 -4.7625 5.87625 -4.125 5.8125 C-1.72238859 5.171081 -1.72238859 5.171081 -0.75 2.4375 C-0.5025 1.633125 -0.255 0.82875 0 0 Z " fill="#227636" transform="translate(104,29)"/>
<path d="M0 0 C3.375 -0.125 3.375 -0.125 7 0 C7.66 0.66 8.32 1.32 9 2 C7.02 2.33 5.04 2.66 3 3 C3 2.34 3 1.68 3 1 C2.01 0.67 1.02 0.34 0 0 Z " fill="#E4E3CC" transform="translate(24,87)"/>
<path d="M0 0 C0.33 0.99 0.66 1.98 1 3 C0.01 3.99 -0.98 4.98 -2 6 C-3.32 5.34 -4.64 4.68 -6 4 C-5.67 3.34 -5.34 2.68 -5 2 C-3.515 2.99 -3.515 2.99 -2 4 C-1.34 2.68 -0.68 1.36 0 0 Z " fill="#33762F" transform="translate(82,73)"/>
<path d="M0 0 C0.66 0.99 1.32 1.98 2 3 C1.01 4.485 1.01 4.485 0 6 C-1.32 5.34 -2.64 4.68 -4 4 C-2.68 2.68 -1.36 1.36 0 0 Z " fill="#D6E2D2" transform="translate(80,71)"/>
<path d="M0 0 C3 3.875 3 3.875 3 5 C1.02 5 -0.96 5 -3 5 C-3 4.01 -3 3.02 -3 2 C-2.01 2 -1.02 2 0 2 C0 1.34 0 0.68 0 0 Z " fill="#408227" transform="translate(90,49)"/>
<path d="M0 0 C2.97 0 5.94 0 9 0 C9 0.33 9 0.66 9 1 C7.02 1 5.04 1 3 1 C2.67 2.32 2.34 3.64 2 5 C0 2 0 2 0 0 Z " fill="#7EB260" transform="translate(39,38)"/>
</svg>
